<mxfile host="app.diagrams.net" agent="Mozilla/5.0 (Windows NT 10.0; Win64; x64) AppleWebKit/537.36 (KHTML, like Gecko) Chrome/136.0.0.0 Safari/537.36" version="27.1.0">
  <diagram name="第 1 页" id="qucP125kRH2lfmhauCK5">
    <mxGraphModel dx="1427" dy="899" grid="1" gridSize="10" guides="1" tooltips="1" connect="1" arrows="1" fold="1" page="1" pageScale="1" pageWidth="2339" pageHeight="3300" math="0" shadow="0">
      <root>
        <mxCell id="0" />
        <mxCell id="1" parent="0" />
        <mxCell id="MW3apKYruLUqG9p78ODX-127" value=":Driver" style="shape=umlLifeline;perimeter=lifelinePerimeter;whiteSpace=wrap;html=1;container=1;dropTarget=0;collapsible=0;recursiveResize=0;outlineConnect=0;portConstraint=eastwest;newEdgeStyle={&quot;curved&quot;:0,&quot;rounded&quot;:0};" vertex="1" parent="1">
          <mxGeometry x="1120" y="540" width="100" height="1670" as="geometry" />
        </mxCell>
        <mxCell id="MW3apKYruLUqG9p78ODX-128" value="" style="html=1;points=[[0,0,0,0,5],[0,1,0,0,-5],[1,0,0,0,5],[1,1,0,0,-5]];perimeter=orthogonalPerimeter;outlineConnect=0;targetShapes=umlLifeline;portConstraint=eastwest;newEdgeStyle={&quot;curved&quot;:0,&quot;rounded&quot;:0};" vertex="1" parent="MW3apKYruLUqG9p78ODX-127">
          <mxGeometry x="45" y="120" width="10" height="80" as="geometry" />
        </mxCell>
        <mxCell id="MW3apKYruLUqG9p78ODX-129" value="" style="html=1;points=[[0,0,0,0,5],[0,1,0,0,-5],[1,0,0,0,5],[1,1,0,0,-5]];perimeter=orthogonalPerimeter;outlineConnect=0;targetShapes=umlLifeline;portConstraint=eastwest;newEdgeStyle={&quot;curved&quot;:0,&quot;rounded&quot;:0};" vertex="1" parent="MW3apKYruLUqG9p78ODX-127">
          <mxGeometry x="45" y="1520" width="10" height="58" as="geometry" />
        </mxCell>
        <mxCell id="MW3apKYruLUqG9p78ODX-130" value=":Pinochle" style="shape=umlLifeline;perimeter=lifelinePerimeter;whiteSpace=wrap;html=1;container=1;dropTarget=0;collapsible=0;recursiveResize=0;outlineConnect=0;portConstraint=eastwest;newEdgeStyle={&quot;curved&quot;:0,&quot;rounded&quot;:0};" vertex="1" parent="1">
          <mxGeometry x="1254" y="540" width="100" height="1660" as="geometry" />
        </mxCell>
        <mxCell id="MW3apKYruLUqG9p78ODX-131" value="" style="html=1;points=[[0,0,0,0,5],[0,1,0,0,-5],[1,0,0,0,5],[1,1,0,0,-5]];perimeter=orthogonalPerimeter;outlineConnect=0;targetShapes=umlLifeline;portConstraint=eastwest;newEdgeStyle={&quot;curved&quot;:0,&quot;rounded&quot;:0};" vertex="1" parent="MW3apKYruLUqG9p78ODX-130">
          <mxGeometry x="45" y="120" width="10" height="1480" as="geometry" />
        </mxCell>
        <mxCell id="MW3apKYruLUqG9p78ODX-132" value="askForTrumpCard()" style="html=1;align=left;spacingLeft=2;endArrow=block;rounded=0;edgeStyle=orthogonalEdgeStyle;curved=0;rounded=0;" edge="1" parent="MW3apKYruLUqG9p78ODX-130" source="MW3apKYruLUqG9p78ODX-131" target="MW3apKYruLUqG9p78ODX-131">
          <mxGeometry relative="1" as="geometry">
            <mxPoint x="60" y="580" as="sourcePoint" />
            <Array as="points">
              <mxPoint x="96" y="580" />
              <mxPoint x="96" y="610" />
            </Array>
            <mxPoint x="60" y="610" as="targetPoint" />
          </mxGeometry>
        </mxCell>
        <mxCell id="MW3apKYruLUqG9p78ODX-133" value="retry()" style="html=1;align=left;spacingLeft=2;endArrow=block;rounded=0;edgeStyle=orthogonalEdgeStyle;curved=0;rounded=0;" edge="1" parent="MW3apKYruLUqG9p78ODX-130">
          <mxGeometry relative="1" as="geometry">
            <mxPoint x="56" y="1162" as="sourcePoint" />
            <Array as="points">
              <mxPoint x="90" y="1162" />
              <mxPoint x="90" y="1182" />
            </Array>
            <mxPoint x="55" y="1182.1111111111113" as="targetPoint" />
          </mxGeometry>
        </mxCell>
        <mxCell id="MW3apKYruLUqG9p78ODX-134" value="" style="html=1;align=left;spacingLeft=2;endArrow=block;rounded=0;edgeStyle=orthogonalEdgeStyle;curved=0;rounded=0;" edge="1" parent="MW3apKYruLUqG9p78ODX-130">
          <mxGeometry x="-0.1" relative="1" as="geometry">
            <mxPoint x="55" y="1212.1111111111113" as="sourcePoint" />
            <Array as="points">
              <mxPoint x="90" y="1212" />
              <mxPoint x="90" y="1242" />
            </Array>
            <mxPoint x="55" y="1242.1111111111113" as="targetPoint" />
            <mxPoint as="offset" />
          </mxGeometry>
        </mxCell>
        <mxCell id="MW3apKYruLUqG9p78ODX-135" value="checkWinner()" style="html=1;align=left;spacingLeft=2;endArrow=block;rounded=0;edgeStyle=orthogonalEdgeStyle;curved=0;rounded=0;" edge="1" parent="MW3apKYruLUqG9p78ODX-130">
          <mxGeometry relative="1" as="geometry">
            <mxPoint x="55" y="1290.1111111111109" as="sourcePoint" />
            <Array as="points">
              <mxPoint x="80" y="1290" />
              <mxPoint x="80" y="1302" />
            </Array>
            <mxPoint x="55" y="1302.1111111111113" as="targetPoint" />
          </mxGeometry>
        </mxCell>
        <mxCell id="MW3apKYruLUqG9p78ODX-136" value="transferCardsToWinner()" style="html=1;align=left;spacingLeft=2;endArrow=block;rounded=0;edgeStyle=orthogonalEdgeStyle;curved=0;rounded=0;" edge="1" parent="MW3apKYruLUqG9p78ODX-130">
          <mxGeometry x="-0.8333" relative="1" as="geometry">
            <mxPoint x="55" y="1322.1111111111113" as="sourcePoint" />
            <Array as="points">
              <mxPoint x="80" y="1322" />
              <mxPoint x="80" y="1332" />
            </Array>
            <mxPoint x="55" y="1332.1111111111113" as="targetPoint" />
            <mxPoint as="offset" />
          </mxGeometry>
        </mxCell>
        <mxCell id="MW3apKYruLUqG9p78ODX-137" value="playingArea.removeAll()" style="html=1;align=left;spacingLeft=2;endArrow=block;rounded=0;edgeStyle=orthogonalEdgeStyle;curved=0;rounded=0;" edge="1" parent="MW3apKYruLUqG9p78ODX-130">
          <mxGeometry x="-0.8333" relative="1" as="geometry">
            <mxPoint x="55" y="1352.1111111111113" as="sourcePoint" />
            <Array as="points">
              <mxPoint x="86" y="1352" />
              <mxPoint x="86" y="1372" />
            </Array>
            <mxPoint x="55" y="1372.1111111111113" as="targetPoint" />
            <mxPoint as="offset" />
          </mxGeometry>
        </mxCell>
        <mxCell id="MW3apKYruLUqG9p78ODX-138" value="initGame()" style="html=1;align=left;spacingLeft=2;endArrow=block;rounded=0;edgeStyle=orthogonalEdgeStyle;curved=0;rounded=0;" edge="1" parent="MW3apKYruLUqG9p78ODX-130" source="MW3apKYruLUqG9p78ODX-131" target="MW3apKYruLUqG9p78ODX-131">
          <mxGeometry relative="1" as="geometry">
            <mxPoint x="-4" y="130" as="sourcePoint" />
            <Array as="points">
              <mxPoint x="76" y="140" />
              <mxPoint x="76" y="160" />
            </Array>
            <mxPoint x="-9" y="160.02222222222224" as="targetPoint" />
          </mxGeometry>
        </mxCell>
        <mxCell id="MW3apKYruLUqG9p78ODX-139" value="" style="html=1;align=left;spacingLeft=2;endArrow=block;rounded=0;edgeStyle=orthogonalEdgeStyle;curved=0;rounded=0;" edge="1" parent="MW3apKYruLUqG9p78ODX-130" target="MW3apKYruLUqG9p78ODX-131">
          <mxGeometry relative="1" as="geometry">
            <mxPoint x="56" y="630" as="sourcePoint" />
            <Array as="points">
              <mxPoint x="96" y="630" />
              <mxPoint x="96" y="660" />
            </Array>
            <mxPoint x="381" y="740" as="targetPoint" />
          </mxGeometry>
        </mxCell>
        <mxCell id="MW3apKYruLUqG9p78ODX-140" value=":Score" style="shape=umlLifeline;perimeter=lifelinePerimeter;whiteSpace=wrap;html=1;container=1;dropTarget=0;collapsible=0;recursiveResize=0;outlineConnect=0;portConstraint=eastwest;newEdgeStyle={&quot;curved&quot;:0,&quot;rounded&quot;:0};" vertex="1" parent="1">
          <mxGeometry x="2070" y="540" width="100" height="1650" as="geometry" />
        </mxCell>
        <mxCell id="MW3apKYruLUqG9p78ODX-141" value="" style="html=1;points=[[0,0,0,0,5],[0,1,0,0,-5],[1,0,0,0,5],[1,1,0,0,-5]];perimeter=orthogonalPerimeter;outlineConnect=0;targetShapes=umlLifeline;portConstraint=eastwest;newEdgeStyle={&quot;curved&quot;:0,&quot;rounded&quot;:0};" vertex="1" parent="MW3apKYruLUqG9p78ODX-140">
          <mxGeometry x="45" y="165" width="10" height="85" as="geometry" />
        </mxCell>
        <mxCell id="MW3apKYruLUqG9p78ODX-142" value="" style="html=1;points=[[0,0,0,0,5],[0,1,0,0,-5],[1,0,0,0,5],[1,1,0,0,-5]];perimeter=orthogonalPerimeter;outlineConnect=0;targetShapes=umlLifeline;portConstraint=eastwest;newEdgeStyle={&quot;curved&quot;:0,&quot;rounded&quot;:0};" vertex="1" parent="MW3apKYruLUqG9p78ODX-140">
          <mxGeometry x="42.5" y="1490" width="15" height="80" as="geometry" />
        </mxCell>
        <mxCell id="MW3apKYruLUqG9p78ODX-143" value=":Bidding" style="shape=umlLifeline;perimeter=lifelinePerimeter;whiteSpace=wrap;html=1;container=1;dropTarget=0;collapsible=0;recursiveResize=0;outlineConnect=0;portConstraint=eastwest;newEdgeStyle={&quot;curved&quot;:0,&quot;rounded&quot;:0};" vertex="1" parent="1">
          <mxGeometry x="1420" y="540" width="100" height="1660" as="geometry" />
        </mxCell>
        <mxCell id="MW3apKYruLUqG9p78ODX-144" value="" style="html=1;points=[[0,0,0,0,5],[0,1,0,0,-5],[1,0,0,0,5],[1,1,0,0,-5]];perimeter=orthogonalPerimeter;outlineConnect=0;targetShapes=umlLifeline;portConstraint=eastwest;newEdgeStyle={&quot;curved&quot;:0,&quot;rounded&quot;:0};" vertex="1" parent="MW3apKYruLUqG9p78ODX-143">
          <mxGeometry x="45" y="290" width="10" height="230" as="geometry" />
        </mxCell>
        <mxCell id="MW3apKYruLUqG9p78ODX-145" value="calculateSmartBid()" style="html=1;align=left;spacingLeft=2;endArrow=block;rounded=0;edgeStyle=orthogonalEdgeStyle;curved=0;rounded=0;" edge="1" parent="MW3apKYruLUqG9p78ODX-143" source="MW3apKYruLUqG9p78ODX-144" target="MW3apKYruLUqG9p78ODX-144">
          <mxGeometry relative="1" as="geometry">
            <mxPoint x="170" y="410" as="sourcePoint" />
            <Array as="points">
              <mxPoint x="90" y="450" />
              <mxPoint x="90" y="470" />
            </Array>
            <mxPoint x="175" y="440" as="targetPoint" />
          </mxGeometry>
        </mxCell>
        <mxCell id="MW3apKYruLUqG9p78ODX-146" value=":Melding" style="shape=umlLifeline;perimeter=lifelinePerimeter;whiteSpace=wrap;html=1;container=1;dropTarget=0;collapsible=0;recursiveResize=0;outlineConnect=0;portConstraint=eastwest;newEdgeStyle={&quot;curved&quot;:0,&quot;rounded&quot;:0};" vertex="1" parent="1">
          <mxGeometry x="1585" y="540" width="100" height="1660" as="geometry" />
        </mxCell>
        <mxCell id="MW3apKYruLUqG9p78ODX-147" value="" style="html=1;points=[[0,0,0,0,5],[0,1,0,0,-5],[1,0,0,0,5],[1,1,0,0,-5]];perimeter=orthogonalPerimeter;outlineConnect=0;targetShapes=umlLifeline;portConstraint=eastwest;newEdgeStyle={&quot;curved&quot;:0,&quot;rounded&quot;:0};" vertex="1" parent="MW3apKYruLUqG9p78ODX-146">
          <mxGeometry x="45" y="326" width="10" height="140" as="geometry" />
        </mxCell>
        <mxCell id="MW3apKYruLUqG9p78ODX-148" value=":MeldStrategy" style="shape=umlLifeline;perimeter=lifelinePerimeter;whiteSpace=wrap;html=1;container=1;dropTarget=0;collapsible=0;recursiveResize=0;outlineConnect=0;portConstraint=eastwest;newEdgeStyle={&quot;curved&quot;:0,&quot;rounded&quot;:0};" vertex="1" parent="1">
          <mxGeometry x="1730" y="540" width="100" height="1670" as="geometry" />
        </mxCell>
        <mxCell id="MW3apKYruLUqG9p78ODX-149" value="" style="html=1;points=[[0,0,0,0,5],[0,1,0,0,-5],[1,0,0,0,5],[1,1,0,0,-5]];perimeter=orthogonalPerimeter;outlineConnect=0;targetShapes=umlLifeline;portConstraint=eastwest;newEdgeStyle={&quot;curved&quot;:0,&quot;rounded&quot;:0};" vertex="1" parent="MW3apKYruLUqG9p78ODX-148">
          <mxGeometry x="45" y="340" width="10" height="127.5" as="geometry" />
        </mxCell>
        <mxCell id="MW3apKYruLUqG9p78ODX-150" value="&lt;div&gt;&lt;i&gt;&amp;lt;&amp;lt;interface&amp;gt;&amp;gt;&lt;/i&gt;&lt;/div&gt;:GameMode" style="shape=umlLifeline;perimeter=lifelinePerimeter;whiteSpace=wrap;html=1;container=1;dropTarget=0;collapsible=0;recursiveResize=0;outlineConnect=0;portConstraint=eastwest;newEdgeStyle={&quot;curved&quot;:0,&quot;rounded&quot;:0};" vertex="1" parent="1">
          <mxGeometry x="1850" y="540" width="100" height="1650" as="geometry" />
        </mxCell>
        <mxCell id="MW3apKYruLUqG9p78ODX-151" value="" style="html=1;points=[[0,0,0,0,5],[0,1,0,0,-5],[1,0,0,0,5],[1,1,0,0,-5]];perimeter=orthogonalPerimeter;outlineConnect=0;targetShapes=umlLifeline;portConstraint=eastwest;newEdgeStyle={&quot;curved&quot;:0,&quot;rounded&quot;:0};" vertex="1" parent="MW3apKYruLUqG9p78ODX-150">
          <mxGeometry x="45" y="723" width="10" height="157" as="geometry" />
        </mxCell>
        <mxCell id="MW3apKYruLUqG9p78ODX-152" value=":TrickStrategy" style="shape=umlLifeline;perimeter=lifelinePerimeter;whiteSpace=wrap;html=1;container=1;dropTarget=0;collapsible=0;recursiveResize=0;outlineConnect=0;portConstraint=eastwest;newEdgeStyle={&quot;curved&quot;:0,&quot;rounded&quot;:0};" vertex="1" parent="1">
          <mxGeometry x="1960" y="540" width="100" height="1650" as="geometry" />
        </mxCell>
        <mxCell id="MW3apKYruLUqG9p78ODX-153" value="" style="html=1;points=[[0,0,0,0,5],[0,1,0,0,-5],[1,0,0,0,5],[1,1,0,0,-5]];perimeter=orthogonalPerimeter;outlineConnect=0;targetShapes=umlLifeline;portConstraint=eastwest;newEdgeStyle={&quot;curved&quot;:0,&quot;rounded&quot;:0};" vertex="1" parent="MW3apKYruLUqG9p78ODX-152">
          <mxGeometry x="45" y="1012" width="10" height="80" as="geometry" />
        </mxCell>
        <mxCell id="MW3apKYruLUqG9p78ODX-154" value="runApp(props)" style="html=1;verticalAlign=bottom;endArrow=block;curved=0;rounded=0;entryX=0;entryY=0.008;entryDx=0;entryDy=0;entryPerimeter=0;" edge="1" parent="1" source="MW3apKYruLUqG9p78ODX-128" target="MW3apKYruLUqG9p78ODX-131">
          <mxGeometry width="80" relative="1" as="geometry">
            <mxPoint x="1180" y="670" as="sourcePoint" />
            <mxPoint x="1289.999999999999" y="669.05" as="targetPoint" />
            <Array as="points" />
          </mxGeometry>
        </mxCell>
        <mxCell id="MW3apKYruLUqG9p78ODX-155" value="initScores()" style="html=1;verticalAlign=bottom;endArrow=block;curved=0;rounded=0;" edge="1" parent="1" source="MW3apKYruLUqG9p78ODX-131" target="MW3apKYruLUqG9p78ODX-141">
          <mxGeometry x="-0.8664" width="80" relative="1" as="geometry">
            <mxPoint x="1400" y="760" as="sourcePoint" />
            <mxPoint x="1480" y="760" as="targetPoint" />
            <Array as="points">
              <mxPoint x="1360" y="720" />
            </Array>
            <mxPoint as="offset" />
          </mxGeometry>
        </mxCell>
        <mxCell id="MW3apKYruLUqG9p78ODX-156" value="initScore()" style="html=1;verticalAlign=bottom;endArrow=block;curved=0;rounded=0;" edge="1" parent="1" source="MW3apKYruLUqG9p78ODX-131" target="MW3apKYruLUqG9p78ODX-141">
          <mxGeometry x="-0.8664" width="80" relative="1" as="geometry">
            <mxPoint x="1250" y="750" as="sourcePoint" />
            <mxPoint x="2513" y="750" as="targetPoint" />
            <Array as="points">
              <mxPoint x="1355" y="750" />
            </Array>
            <mxPoint as="offset" />
          </mxGeometry>
        </mxCell>
        <mxCell id="MW3apKYruLUqG9p78ODX-157" value="" style="line;strokeWidth=2;fillColor=none;align=left;verticalAlign=middle;spacingTop=-1;spacingLeft=3;spacingRight=3;rotatable=0;labelPosition=right;points=[];portConstraint=eastwest;strokeColor=inherit;" vertex="1" parent="1">
          <mxGeometry x="1020" y="620" width="1260" height="8" as="geometry" />
        </mxCell>
        <mxCell id="MW3apKYruLUqG9p78ODX-158" value="1. Startup &amp;amp; Initialization" style="html=1;whiteSpace=wrap;fontStyle=1" vertex="1" parent="1">
          <mxGeometry x="1560" y="604" width="150" height="40" as="geometry" />
        </mxCell>
        <mxCell id="MW3apKYruLUqG9p78ODX-159" value="askForBid()" style="html=1;verticalAlign=bottom;endArrow=block;curved=0;rounded=0;" edge="1" parent="1">
          <mxGeometry width="80" relative="1" as="geometry">
            <mxPoint x="1308" y="840" as="sourcePoint" />
            <mxPoint x="1470" y="840" as="targetPoint" />
          </mxGeometry>
        </mxCell>
        <mxCell id="MW3apKYruLUqG9p78ODX-160" value="alt" style="shape=umlFrame;whiteSpace=wrap;html=1;pointerEvents=0;" vertex="1" parent="1">
          <mxGeometry x="1400" y="852.5" width="460" height="170" as="geometry" />
        </mxCell>
        <mxCell id="MW3apKYruLUqG9p78ODX-161" value="[Computer Smart Bidding]" style="text;html=1;align=center;verticalAlign=middle;whiteSpace=wrap;rounded=0;fontSize=10;fontStyle=1" vertex="1" parent="1">
          <mxGeometry x="1470" y="852.5" width="140" height="30" as="geometry" />
        </mxCell>
        <mxCell id="MW3apKYruLUqG9p78ODX-162" value="calculateMeldingScore(hand)" style="html=1;verticalAlign=bottom;endArrow=block;curved=0;rounded=0;exitX=0.5;exitY=0.348;exitDx=0;exitDy=0;exitPerimeter=0;" edge="1" parent="1" source="MW3apKYruLUqG9p78ODX-144">
          <mxGeometry width="80" relative="1" as="geometry">
            <mxPoint x="1480" y="910" as="sourcePoint" />
            <mxPoint x="1630" y="910" as="targetPoint" />
          </mxGeometry>
        </mxCell>
        <mxCell id="MW3apKYruLUqG9p78ODX-163" value="" style="html=1;verticalAlign=bottom;endArrow=block;curved=0;rounded=0;" edge="1" parent="1">
          <mxGeometry x="-0.0016" width="80" relative="1" as="geometry">
            <mxPoint x="1641" y="920" as="sourcePoint" />
            <mxPoint x="1780" y="920" as="targetPoint" />
            <mxPoint as="offset" />
          </mxGeometry>
        </mxCell>
        <mxCell id="MW3apKYruLUqG9p78ODX-164" value="load &amp;amp; apply rules(Composite + sub-strategies)" style="text;html=1;align=center;verticalAlign=middle;whiteSpace=wrap;rounded=0;fontSize=11;" vertex="1" parent="1">
          <mxGeometry x="1660" y="882.5" width="100" height="30" as="geometry" />
        </mxCell>
        <mxCell id="MW3apKYruLUqG9p78ODX-165" value="totalMeldScore" style="html=1;verticalAlign=bottom;endArrow=open;dashed=1;endSize=8;curved=0;rounded=0;" edge="1" parent="1">
          <mxGeometry x="0.0303" relative="1" as="geometry">
            <mxPoint x="1780" y="960" as="sourcePoint" />
            <mxPoint x="1640" y="959.66" as="targetPoint" />
            <Array as="points">
              <mxPoint x="1680" y="959.66" />
            </Array>
            <mxPoint as="offset" />
          </mxGeometry>
        </mxCell>
        <mxCell id="MW3apKYruLUqG9p78ODX-166" value="chosenBid" style="html=1;verticalAlign=bottom;endArrow=open;dashed=1;endSize=8;curved=0;rounded=0;" edge="1" parent="1">
          <mxGeometry relative="1" as="geometry">
            <mxPoint x="1466" y="1050" as="sourcePoint" />
            <mxPoint x="1311" y="1050" as="targetPoint" />
          </mxGeometry>
        </mxCell>
        <mxCell id="MW3apKYruLUqG9p78ODX-167" value="applyMode()" style="html=1;verticalAlign=bottom;endArrow=block;curved=0;rounded=0;" edge="1" parent="1">
          <mxGeometry x="-0.8" y="3" width="80" relative="1" as="geometry">
            <mxPoint x="1311" y="1300" as="sourcePoint" />
            <mxPoint x="1901" y="1300" as="targetPoint" />
            <mxPoint as="offset" />
          </mxGeometry>
        </mxCell>
        <mxCell id="MW3apKYruLUqG9p78ODX-168" value="&amp;nbsp;hands now at 12 cards each" style="html=1;verticalAlign=bottom;endArrow=open;dashed=1;endSize=8;curved=0;rounded=0;" edge="1" parent="1">
          <mxGeometry x="0.6962" relative="1" as="geometry">
            <mxPoint x="1897" y="1320" as="sourcePoint" />
            <mxPoint x="1311" y="1320" as="targetPoint" />
            <mxPoint as="offset" />
          </mxGeometry>
        </mxCell>
        <mxCell id="MW3apKYruLUqG9p78ODX-169" value="" style="line;strokeWidth=2;fillColor=none;align=left;verticalAlign=middle;spacingTop=-1;spacingLeft=3;spacingRight=3;rotatable=0;labelPosition=right;points=[];portConstraint=eastwest;strokeColor=inherit;" vertex="1" parent="1">
          <mxGeometry x="1020" y="792" width="1260" height="8" as="geometry" />
        </mxCell>
        <mxCell id="MW3apKYruLUqG9p78ODX-170" value="2. Smart Bidding" style="html=1;whiteSpace=wrap;fontStyle=1" vertex="1" parent="1">
          <mxGeometry x="1560" y="784" width="150" height="40" as="geometry" />
        </mxCell>
        <mxCell id="MW3apKYruLUqG9p78ODX-171" value="" style="line;strokeWidth=2;fillColor=none;align=left;verticalAlign=middle;spacingTop=-1;spacingLeft=3;spacingRight=3;rotatable=0;labelPosition=right;points=[];portConstraint=eastwest;strokeColor=inherit;fontStyle=1" vertex="1" parent="1">
          <mxGeometry x="1020" y="1090" width="1260" height="8" as="geometry" />
        </mxCell>
        <mxCell id="MW3apKYruLUqG9p78ODX-172" value="3. Trump Selection" style="html=1;whiteSpace=wrap;fontStyle=1" vertex="1" parent="1">
          <mxGeometry x="1560" y="1066" width="150" height="40" as="geometry" />
        </mxCell>
        <mxCell id="MW3apKYruLUqG9p78ODX-173" value="" style="line;strokeWidth=2;fillColor=none;align=left;verticalAlign=middle;spacingTop=-1;spacingLeft=3;spacingRight=3;rotatable=0;labelPosition=right;points=[];portConstraint=eastwest;strokeColor=inherit;" vertex="1" parent="1">
          <mxGeometry x="1020" y="1230" width="1260" height="8" as="geometry" />
        </mxCell>
        <mxCell id="MW3apKYruLUqG9p78ODX-174" value="4. Cut-Throat / Regular Mode" style="html=1;whiteSpace=wrap;fontStyle=1" vertex="1" parent="1">
          <mxGeometry x="1560" y="1210" width="150" height="40" as="geometry" />
        </mxCell>
        <mxCell id="MW3apKYruLUqG9p78ODX-175" value="" style="line;strokeWidth=2;fillColor=none;align=left;verticalAlign=middle;spacingTop=-1;spacingLeft=3;spacingRight=3;rotatable=0;labelPosition=right;points=[];portConstraint=eastwest;strokeColor=inherit;" vertex="1" parent="1">
          <mxGeometry x="1030" y="1490" width="1260" height="8" as="geometry" />
        </mxCell>
        <mxCell id="MW3apKYruLUqG9p78ODX-176" value="5. Trick-Taking Loop" style="html=1;whiteSpace=wrap;fontStyle=1" vertex="1" parent="1">
          <mxGeometry x="1560" y="1474" width="150" height="40" as="geometry" />
        </mxCell>
        <mxCell id="MW3apKYruLUqG9p78ODX-177" value="loop" style="shape=umlFrame;whiteSpace=wrap;html=1;pointerEvents=0;" vertex="1" parent="1">
          <mxGeometry x="1230" y="1532" width="810" height="420" as="geometry" />
        </mxCell>
        <mxCell id="MW3apKYruLUqG9p78ODX-178" value="[each trick]" style="text;html=1;align=center;verticalAlign=middle;whiteSpace=wrap;rounded=0;fontSize=10;fontStyle=1" vertex="1" parent="1">
          <mxGeometry x="1300" y="1532" width="100" height="30" as="geometry" />
        </mxCell>
        <mxCell id="MW3apKYruLUqG9p78ODX-179" value="pickCardFromHand(hand)" style="html=1;verticalAlign=bottom;endArrow=block;curved=0;rounded=0;" edge="1" parent="1" target="MW3apKYruLUqG9p78ODX-153">
          <mxGeometry x="-0.8137" width="80" relative="1" as="geometry">
            <mxPoint x="1310" y="1572" as="sourcePoint" />
            <mxPoint x="2050" y="1571.57" as="targetPoint" />
            <mxPoint as="offset" />
          </mxGeometry>
        </mxCell>
        <mxCell id="MW3apKYruLUqG9p78ODX-180" value="selectedCard" style="html=1;verticalAlign=bottom;endArrow=open;dashed=1;endSize=8;curved=0;rounded=0;" edge="1" parent="1" source="MW3apKYruLUqG9p78ODX-153">
          <mxGeometry x="0.8519" relative="1" as="geometry">
            <mxPoint x="1930" y="1592" as="sourcePoint" />
            <mxPoint x="1310" y="1592" as="targetPoint" />
            <mxPoint as="offset" />
          </mxGeometry>
        </mxCell>
        <mxCell id="MW3apKYruLUqG9p78ODX-181" value="checkValidTrick&lt;div&gt;(selectedCard)&lt;/div&gt;" style="html=1;align=left;spacingLeft=2;endArrow=block;rounded=0;edgeStyle=orthogonalEdgeStyle;curved=0;rounded=0;" edge="1" parent="1">
          <mxGeometry relative="1" as="geometry">
            <mxPoint x="1309" y="1622.1111111111113" as="sourcePoint" />
            <Array as="points">
              <mxPoint x="1350" y="1622" />
              <mxPoint x="1350" y="1652" />
            </Array>
            <mxPoint x="1310" y="1652" as="targetPoint" />
            <mxPoint as="offset" />
          </mxGeometry>
        </mxCell>
        <mxCell id="MW3apKYruLUqG9p78ODX-182" value="alt" style="shape=umlFrame;whiteSpace=wrap;html=1;pointerEvents=0;" vertex="1" parent="1">
          <mxGeometry x="1240" y="1662" width="220" height="280" as="geometry" />
        </mxCell>
        <mxCell id="MW3apKYruLUqG9p78ODX-183" value="[invalid]" style="text;html=1;align=center;verticalAlign=middle;whiteSpace=wrap;rounded=0;fontSize=10;fontStyle=1" vertex="1" parent="1">
          <mxGeometry x="1300" y="1662" width="68" height="30" as="geometry" />
        </mxCell>
        <mxCell id="MW3apKYruLUqG9p78ODX-184" value="[valid]" style="text;html=1;align=center;verticalAlign=middle;whiteSpace=wrap;rounded=0;fontSize=10;fontStyle=1" vertex="1" parent="1">
          <mxGeometry x="1311" y="1727" width="48" height="30" as="geometry" />
        </mxCell>
        <mxCell id="MW3apKYruLUqG9p78ODX-185" value="playingA&lt;span style=&quot;background-color: transparent; color: light-dark(rgb(0, 0, 0), rgb(255, 255, 255));&quot;&gt;rea.insert&lt;/span&gt;&lt;div&gt;&lt;span style=&quot;background-color: transparent; color: light-dark(rgb(0, 0, 0), rgb(255, 255, 255));&quot;&gt;(selectedCard)&lt;/span&gt;&lt;/div&gt;" style="text;html=1;align=center;verticalAlign=middle;whiteSpace=wrap;rounded=0;fontSize=11;" vertex="1" parent="1">
          <mxGeometry x="1340" y="1756" width="112" height="30" as="geometry" />
        </mxCell>
        <mxCell id="MW3apKYruLUqG9p78ODX-186" value="alt" style="shape=umlFrame;whiteSpace=wrap;html=1;pointerEvents=0;" vertex="1" parent="1">
          <mxGeometry x="1250" y="1792" width="190" height="140" as="geometry" />
        </mxCell>
        <mxCell id="MW3apKYruLUqG9p78ODX-187" value="[tableFull?]" style="text;html=1;align=center;verticalAlign=middle;whiteSpace=wrap;rounded=0;fontSize=10;fontStyle=1" vertex="1" parent="1">
          <mxGeometry x="1311" y="1792" width="68" height="30" as="geometry" />
        </mxCell>
        <mxCell id="MW3apKYruLUqG9p78ODX-188" value="" style="line;strokeWidth=2;fillColor=none;align=left;verticalAlign=middle;spacingTop=-1;spacingLeft=3;spacingRight=3;rotatable=0;labelPosition=right;points=[];portConstraint=eastwest;strokeColor=inherit;" vertex="1" parent="1">
          <mxGeometry x="1000" y="1994" width="1260" height="8" as="geometry" />
        </mxCell>
        <mxCell id="MW3apKYruLUqG9p78ODX-189" value="6. Update &amp;amp; End" style="html=1;whiteSpace=wrap;fontStyle=1" vertex="1" parent="1">
          <mxGeometry x="1560" y="1962" width="150" height="40" as="geometry" />
        </mxCell>
        <mxCell id="MW3apKYruLUqG9p78ODX-190" value="updateTrickScore()" style="html=1;verticalAlign=bottom;endArrow=block;curved=0;rounded=0;" edge="1" parent="1">
          <mxGeometry x="-0.8496" width="80" relative="1" as="geometry">
            <mxPoint x="1304.5" y="2070" as="sourcePoint" />
            <mxPoint x="2115.5" y="2070" as="targetPoint" />
            <mxPoint as="offset" />
          </mxGeometry>
        </mxCell>
        <mxCell id="MW3apKYruLUqG9p78ODX-191" value="updateScore(i)" style="html=1;verticalAlign=bottom;endArrow=block;curved=0;rounded=0;" edge="1" parent="1">
          <mxGeometry x="-0.8825" width="80" relative="1" as="geometry">
            <mxPoint x="1307" y="2090" as="sourcePoint" />
            <mxPoint x="2113" y="2090" as="targetPoint" />
            <mxPoint as="offset" />
          </mxGeometry>
        </mxCell>
        <mxCell id="MW3apKYruLUqG9p78ODX-192" value="&lt;div&gt;At runtime TrickStrategy is bound to:&lt;/div&gt;&lt;div&gt;&amp;nbsp; &amp;nbsp; &amp;nbsp; • SmartTrickStrategy&amp;nbsp; (if mode.smarttrick == true)&amp;nbsp;&amp;nbsp;&lt;/div&gt;&lt;div&gt;&amp;nbsp; &amp;nbsp; &amp;nbsp; • RandomTrickStrategy (otherwise)&lt;/div&gt;" style="shape=note;whiteSpace=wrap;html=1;backgroundOutline=1;fontColor=#000000;darkOpacity=0.05;fillColor=#FFF9B2;strokeColor=none;fillStyle=solid;direction=west;gradientDirection=north;gradientColor=#FFF2A1;shadow=1;size=20;pointerEvents=1;" vertex="1" parent="1">
          <mxGeometry x="1690" y="1596" width="310" height="60" as="geometry" />
        </mxCell>
        <mxCell id="MW3apKYruLUqG9p78ODX-193" value="" style="html=1;verticalAlign=bottom;endArrow=open;dashed=1;endSize=8;curved=0;rounded=0;" edge="1" parent="1" target="MW3apKYruLUqG9p78ODX-127">
          <mxGeometry x="-0.0028" y="2" relative="1" as="geometry">
            <mxPoint x="1300.000000000001" y="2105" as="sourcePoint" />
            <mxPoint x="1171.5" y="2265" as="targetPoint" />
            <mxPoint as="offset" />
            <Array as="points">
              <mxPoint x="1236.5" y="2105" />
            </Array>
          </mxGeometry>
        </mxCell>
        <mxCell id="MW3apKYruLUqG9p78ODX-194" value="&lt;span style=&quot;font-size: 11px; text-wrap-mode: nowrap; background-color: rgb(255, 255, 255);&quot;&gt;return logResult&lt;/span&gt;" style="text;html=1;align=center;verticalAlign=middle;whiteSpace=wrap;rounded=0;" vertex="1" parent="1">
          <mxGeometry x="1200" y="2080" width="60" height="30" as="geometry" />
        </mxCell>
        <mxCell id="MW3apKYruLUqG9p78ODX-195" value="updateTrumpActor()" style="text;html=1;align=center;verticalAlign=middle;whiteSpace=wrap;rounded=0;" vertex="1" parent="1">
          <mxGeometry x="1379" y="1170" width="60" height="30" as="geometry" />
        </mxCell>
        <mxCell id="MW3apKYruLUqG9p78ODX-196" value="alt" style="shape=umlFrame;whiteSpace=wrap;html=1;pointerEvents=0;" vertex="1" parent="1">
          <mxGeometry x="1270" y="1250" width="810" height="190" as="geometry" />
        </mxCell>
        <mxCell id="MW3apKYruLUqG9p78ODX-197" value="[Cut-Throat Mode]" style="text;html=1;align=center;verticalAlign=middle;whiteSpace=wrap;rounded=0;fontSize=10;fontStyle=1" vertex="1" parent="1">
          <mxGeometry x="1311" y="1250" width="140" height="30" as="geometry" />
        </mxCell>
        <mxCell id="MW3apKYruLUqG9p78ODX-198" value="&lt;div&gt;&amp;nbsp;• flip 2 face-up cards&amp;nbsp;&amp;nbsp;&lt;/div&gt;&lt;div&gt;&amp;nbsp; &amp;nbsp; &amp;nbsp; • winner/loser picks one&amp;nbsp;&amp;nbsp;&lt;/div&gt;&lt;div&gt;&amp;nbsp; &amp;nbsp; • deal remaining cards&amp;nbsp;&amp;nbsp;&lt;/div&gt;&lt;div&gt;• discard down to 12&amp;nbsp;&lt;/div&gt;" style="shape=note;whiteSpace=wrap;html=1;backgroundOutline=1;fontColor=#000000;darkOpacity=0.05;fillColor=#FFF9B2;strokeColor=none;fillStyle=solid;direction=west;gradientDirection=north;gradientColor=#FFF2A1;shadow=1;size=20;pointerEvents=1;" vertex="1" parent="1">
          <mxGeometry x="1910" y="1270" width="160" height="60" as="geometry" />
        </mxCell>
        <mxCell id="MW3apKYruLUqG9p78ODX-199" value="[Regular Mode]" style="text;html=1;align=center;verticalAlign=middle;whiteSpace=wrap;rounded=0;fontSize=10;fontStyle=1" vertex="1" parent="1">
          <mxGeometry x="1330.5" y="1330" width="101" height="30" as="geometry" />
        </mxCell>
        <mxCell id="MW3apKYruLUqG9p78ODX-200" value="applyMode()" style="html=1;verticalAlign=bottom;endArrow=block;curved=0;rounded=0;" edge="1" parent="1">
          <mxGeometry x="-0.8" y="3" width="80" relative="1" as="geometry">
            <mxPoint x="1311" y="1374.47" as="sourcePoint" />
            <mxPoint x="1901" y="1374.47" as="targetPoint" />
            <mxPoint as="offset" />
          </mxGeometry>
        </mxCell>
        <mxCell id="MW3apKYruLUqG9p78ODX-201" value="&amp;nbsp;hands now at 12 cards each" style="html=1;verticalAlign=bottom;endArrow=open;dashed=1;endSize=8;curved=0;rounded=0;" edge="1" parent="1">
          <mxGeometry x="0.6962" relative="1" as="geometry">
            <mxPoint x="1897" y="1400" as="sourcePoint" />
            <mxPoint x="1311" y="1400" as="targetPoint" />
            <mxPoint as="offset" />
          </mxGeometry>
        </mxCell>
        <mxCell id="MW3apKYruLUqG9p78ODX-202" value="Keep the original 12 cards" style="shape=note;whiteSpace=wrap;html=1;backgroundOutline=1;fontColor=#000000;darkOpacity=0.05;fillColor=#FFF9B2;strokeColor=none;fillStyle=solid;direction=west;gradientDirection=north;gradientColor=#FFF2A1;shadow=1;size=20;pointerEvents=1;" vertex="1" parent="1">
          <mxGeometry x="1910" y="1380" width="160" height="40" as="geometry" />
        </mxCell>
      </root>
    </mxGraphModel>
  </diagram>
</mxfile>
